HIERARCHY
ROOT Hips
{
  OFFSET 1.44925e-005 102.336 -0.101585
  CHANNELS 6 Xposition Yposition Zposition Zrotation Xrotation Yrotation
  JOINT LeftUpLeg
  {
    OFFSET 8.9458 -8.66707 0.101652
    CHANNELS 3 Zrotation Xrotation Yrotation
    JOINT LeftLeg
    {
      OFFSET 0 -44.4227 1.3727
      CHANNELS 3 Zrotation Xrotation Yrotation
      JOINT LeftFoot
      {
        OFFSET -0.253549 -42.0924 -1.46059
        CHANNELS 3 Zrotation Xrotation Yrotation
        JOINT LeftToes
        {
          OFFSET -0.04 -4.41509 8.4991
          CHANNELS 3 Zrotation Xrotation Yrotation
          End Site
          {
            OFFSET 0.08 -0.047448 9.77979
          }
        }
      }
    }
  }
  JOINT Spine
  {
    OFFSET 0 11.8905 0
    CHANNELS 3 Zrotation Xrotation Yrotation
    JOINT Spine1
    {
      OFFSET 0 25.6574 0.127663
      CHANNELS 3 Zrotation Xrotation Yrotation
      JOINT RightShoulder
      {
        OFFSET -8.99 -0.362252 -0.22
        CHANNELS 3 Zrotation Xrotation Yrotation
        JOINT RightArm
        {
          OFFSET -10.2827 -0.00338 0.322123
          CHANNELS 3 Zrotation Xrotation Yrotation
          JOINT RightForeArm
          {
            OFFSET -26.364 0.099144 -1.42434
            CHANNELS 3 Zrotation Xrotation Yrotation
            JOINT RightHand
            {
              OFFSET -22.0324 0.085362 1.02216
              CHANNELS 3 Zrotation Xrotation Yrotation
              End Site
              {
                OFFSET -13.3284 -0.6 1.50291
              }
            }
          }
        }
      }
      JOINT LeftShoulder1
      {
        OFFSET 8.99 -0.362252 -0.22
        CHANNELS 3 Zrotation Xrotation Yrotation
        JOINT LeftArm
        {
          OFFSET 10.2827 -0.00337999 0.322123
          CHANNELS 3 Zrotation Xrotation Yrotation
          JOINT LeftForeArm
          {
            OFFSET 26.2597 0.099144 -1.42434
            CHANNELS 3 Zrotation Xrotation Yrotation
            JOINT LeftHand
            {
              OFFSET 22.0902 0.085362 1.02216
              CHANNELS 3 Zrotation Xrotation Yrotation
              End Site
              {
                OFFSET 13.419 -0.6 1.50291
              }
            }
          }
        }
      }
      JOINT Head
      {
        OFFSET 0 8.73416 0.011341
        CHANNELS 3 Zrotation Xrotation Yrotation
        End Site
        {
          OFFSET -0.29 12.7742 2.51395
        }
      }
    }
  }
  JOINT RightUpLeg
  {
    OFFSET -8.9458 -8.66707 0.101652
    CHANNELS 3 Zrotation Xrotation Yrotation
    JOINT RightLeg
    {
      OFFSET 0 -44.4227 1.3727
      CHANNELS 3 Zrotation Xrotation Yrotation
      JOINT RightFoot
      {
        OFFSET 0.253549 -42.0924 -1.46059
        CHANNELS 3 Zrotation Xrotation Yrotation
        JOINT RightToes
        {
          OFFSET 0.04 -4.41509 8.4991
          CHANNELS 3 Zrotation Xrotation Yrotation
          End Site
          {
            OFFSET -0.08 -0.137448 9.77979
          }
        }
      }
    }
  }
}
MOTION
Frames:	7
Frame Time:	0.0333333
189.189 103.133 5.97352 -3.13385 -0.452433 -92.2475 -1.09236 2.49528 2.54793 -0.371904 7.09606 23.9803 -2.13623 -10.6839 -0.00911569 -1.30374e-009 8.75242e-006 -1.47692e-008 1.77595 6.59309 0.024282 -2.56619 -2.27557 0.54904 36.6864 1.75477 0.0853817 43.686 -21.138 8.15133 9.19149 42.5029 5.30813 -8.53149 9.58397 -0.896602 -43.1961 3.49621 -3.53045 -29.23 -15.9951 0.461554 -5.26533 38.2341 -12.9842 5.82328 9.61819 -0.917488 -1.76271 -4.22323 -0.983455 -0.892066 2.57022 -4.09762 0.0535909 9.20645 -9.59166 2.63079 -13.0515 -0.0783378 0.0462048 0.000530889 0.662642 
189.18 103.133 5.97352 -3.12569 -0.445775 -92.2488 -1.09194 2.486 2.54791 -0.361588 7.10869 23.981 -2.15711 -10.6898 -0.00911587 -1.30374e-009 8.75242e-006 -1.47692e-008 1.78547 6.55918 0.0242804 -2.57242 -2.25632 0.549033 36.6995 1.75477 0.0853817 43.6747 -21.1477 8.16526 9.11638 42.7356 5.37166 -8.40098 9.58423 -0.79207 -43.2092 3.49621 -3.53045 -29.2211 -15.892 0.462136 -5.28849 38.1004 -12.9851 5.82328 9.61819 -0.917488 -1.14907 -3.8378 -0.581742 -0.892254 2.55356 -4.12004 0.0826865 9.24098 -9.56738 2.60271 -13.0703 -0.0783438 0.0462048 0.000530889 0.662642 
189.166 103.132 5.97352 -3.12317 -0.439921 -92.25 -1.0915 2.48404 2.5479 -0.347206 7.12478 23.9819 -2.17558 -10.7039 -0.00911629 -1.30374e-009 8.75242e-006 -1.47692e-008 1.79656 6.51128 0.0247755 -2.58142 -2.21072 0.549867 36.7147 1.75477 0.0853817 43.6583 -21.1556 8.21202 9.00306 43.1202 5.46644 -8.18345 9.58527 -0.541812 -43.2086 3.49621 -3.53045 -29.2272 -15.8325 0.460447 -5.28278 38.0375 -13.0075 5.82328 9.61819 -0.917488 0.0163271 -2.98759 0.0749857 -0.891389 2.54347 -4.1371 0.105804 9.28165 -9.55457 2.60124 -13.0943 -0.0783514 0.0462048 0.000530889 0.662642 
189.157 103.131 5.97344 -3.11837 -0.434566 -92.2529 -1.08778 2.476 2.54789 -0.341374 7.14276 23.9829 -2.17183 -10.7213 -0.00911682 -1.30374e-009 8.75242e-006 -1.47692e-008 1.8028 6.45893 0.0315673 -2.58586 -2.16292 0.557223 36.7182 1.75477 0.0853817 43.645 -21.1612 8.25956 8.95143 43.1506 5.53154 -8.03046 9.59443 -0.602093 -43.201 3.49665 -3.53045 -29.2472 -15.8753 0.442056 -5.24276 38.1041 -13.0371 5.82328 9.61819 -0.917488 0.875409 -2.29286 0.464054 -0.884938 2.54215 -4.12787 0.104583 9.28599 -9.56396 2.62212 -13.1018 -0.0783538 0.0462048 0.000530889 0.662642 
189.15 103.13 5.97355 -3.10022 -0.427807 -92.2646 -1.07821 2.45275 2.54784 -0.345017 7.15999 23.9863 -2.16282 -10.7341 -0.0091172 -1.30374e-009 8.75242e-006 -1.47692e-008 1.79992 6.39535 0.0544361 -2.57514 -2.12916 0.577507 36.6875 1.75477 0.0853817 43.6619 -21.1692 8.27758 8.97719 42.8034 5.54388 -7.95676 9.62242 -1.01783 -43.2302 3.49996 -3.53046 -29.2345 -15.8773 0.424018 -5.2441 38.0629 -13.0438 5.82328 9.61819 -0.917488 0.972462 -2.16664 0.427752 -0.869737 2.5317 -4.10378 0.0924423 9.26817 -9.57594 2.61527 -13.0978 -0.0783525 0.0462048 0.000530889 0.662642 
189.141 103.129 5.97435 -3.08292 -0.426049 -92.2788 -1.07559 2.43955 2.54501 -0.346821 7.16249 23.9972 -2.16824 -10.7382 -0.00911733 -1.30374e-009 8.75242e-006 -1.47692e-008 1.79341 6.34502 0.0772873 -2.5596 -2.12361 0.597179 36.6406 1.75477 0.0853817 43.694 -21.2004 8.26897 8.9982 42.6736 5.5184 -7.87369 9.63885 -1.24152 -43.2938 3.50736 -3.53063 -29.1752 -15.7489 0.440777 -5.29035 37.8218 -13.0498 5.82328 9.61819 -0.917488 0.591525 -2.37836 0.161915 -0.861372 2.51592 -4.08819 0.0808831 9.26845 -9.58116 2.5825 -13.0975 -0.0783524 0.0462048 0.000530889 0.662642 
189.129 103.128 5.97535 -3.08503 -0.433288 -92.2721 -1.08943 2.45817 2.5317 -0.342438 7.14279 24.0063 -2.17589 -10.7355 -0.00911725 -1.30374e-009 8.75242e-006 -1.47692e-008 1.79844 6.33536 0.0814561 -2.5713 -2.15398 0.603783 36.6396 1.75477 0.0852847 43.6753 -21.2592 8.24907 8.96373 43.038 5.4858 -7.79657 9.6292 -1.0302 -43.3267 3.5109 -3.53127 -29.1237 -15.6035 0.491372 -5.26792 37.6628 -13.1193 5.82328 9.61819 -0.917488 0.256516 -2.50328 -0.0943353 -0.866631 2.51642 -4.08953 0.0703611 9.28985 -9.58718 2.57351 -13.1071 -0.0783554 0.0462048 0.000530889 0.662642 
